<mxfile host="app.diagrams.net" modified="2023-06-08T12:07:47.613Z" agent="Mozilla/5.0 (Windows NT 10.0; Win64; x64; rv:109.0) Gecko/20100101 Firefox/113.0" etag="EOWo56U5rt8U-xRyWeML" version="21.1.1" type="github">
  <diagram name="Seite-1" id="Pj3N7qiV_4lUWH3rlGR3">
    <mxGraphModel dx="1500" dy="1992" grid="1" gridSize="10" guides="1" tooltips="1" connect="1" arrows="1" fold="1" page="1" pageScale="1" pageWidth="827" pageHeight="1169" math="0" shadow="0">
      <root>
        <mxCell id="0" />
        <mxCell id="1" parent="0" />
        <mxCell id="in-sBG0inysb9XRqAqCt-2" value="" style="image;html=1;image=img/lib/clip_art/computers/Server_Rack_128x128.png" vertex="1" parent="1">
          <mxGeometry x="130" y="430" width="80" height="80" as="geometry" />
        </mxCell>
        <mxCell id="in-sBG0inysb9XRqAqCt-3" value="" style="image;html=1;image=img/lib/clip_art/computers/Server_Rack_128x128.png" vertex="1" parent="1">
          <mxGeometry x="1100" y="430" width="80" height="80" as="geometry" />
        </mxCell>
        <mxCell id="in-sBG0inysb9XRqAqCt-4" value="" style="image;html=1;image=img/lib/clip_art/networking/Switch_128x128.png" vertex="1" parent="1">
          <mxGeometry x="430" y="430" width="80" height="80" as="geometry" />
        </mxCell>
        <mxCell id="in-sBG0inysb9XRqAqCt-5" value="" style="image;html=1;image=img/lib/clip_art/networking/Switch_128x128.png" vertex="1" parent="1">
          <mxGeometry x="760" y="430" width="80" height="80" as="geometry" />
        </mxCell>
        <mxCell id="in-sBG0inysb9XRqAqCt-6" value="" style="image;html=1;image=img/lib/clip_art/networking/Router_128x128.png" vertex="1" parent="1">
          <mxGeometry x="430" y="230" width="80" height="80" as="geometry" />
        </mxCell>
        <mxCell id="in-sBG0inysb9XRqAqCt-7" value="" style="image;html=1;image=img/lib/clip_art/networking/Router_128x128.png" vertex="1" parent="1">
          <mxGeometry x="760" y="230" width="80" height="80" as="geometry" />
        </mxCell>
        <mxCell id="in-sBG0inysb9XRqAqCt-47" style="edgeStyle=orthogonalEdgeStyle;rounded=0;orthogonalLoop=1;jettySize=auto;html=1;fillColor=#f8cecc;strokeColor=#b85450;" edge="1" parent="1" source="in-sBG0inysb9XRqAqCt-8" target="in-sBG0inysb9XRqAqCt-9">
          <mxGeometry relative="1" as="geometry" />
        </mxCell>
        <mxCell id="in-sBG0inysb9XRqAqCt-8" value="" style="image;html=1;image=img/lib/clip_art/networking/Router_128x128.png" vertex="1" parent="1">
          <mxGeometry x="430" y="20" width="80" height="80" as="geometry" />
        </mxCell>
        <mxCell id="in-sBG0inysb9XRqAqCt-9" value="" style="image;html=1;image=img/lib/clip_art/networking/Router_128x128.png" vertex="1" parent="1">
          <mxGeometry x="760" y="20" width="80" height="80" as="geometry" />
        </mxCell>
        <mxCell id="in-sBG0inysb9XRqAqCt-10" value="" style="image;html=1;image=img/lib/clip_art/networking/Switch_128x128.png" vertex="1" parent="1">
          <mxGeometry x="430" y="-230" width="80" height="80" as="geometry" />
        </mxCell>
        <mxCell id="in-sBG0inysb9XRqAqCt-11" value="" style="image;html=1;image=img/lib/clip_art/networking/Switch_128x128.png" vertex="1" parent="1">
          <mxGeometry x="760" y="-230" width="80" height="80" as="geometry" />
        </mxCell>
        <mxCell id="in-sBG0inysb9XRqAqCt-12" value="" style="image;html=1;image=img/lib/clip_art/computers/Laptop_128x128.png" vertex="1" parent="1">
          <mxGeometry x="130" y="-230" width="80" height="80" as="geometry" />
        </mxCell>
        <mxCell id="in-sBG0inysb9XRqAqCt-13" value="" style="image;html=1;image=img/lib/clip_art/computers/Laptop_128x128.png" vertex="1" parent="1">
          <mxGeometry x="430" y="-490" width="80" height="80" as="geometry" />
        </mxCell>
        <mxCell id="in-sBG0inysb9XRqAqCt-14" value="" style="image;html=1;image=img/lib/clip_art/computers/Laptop_128x128.png" vertex="1" parent="1">
          <mxGeometry x="1100" y="-230" width="80" height="80" as="geometry" />
        </mxCell>
        <mxCell id="in-sBG0inysb9XRqAqCt-15" value="" style="image;html=1;image=img/lib/clip_art/computers/Laptop_128x128.png" vertex="1" parent="1">
          <mxGeometry x="760" y="-490" width="80" height="80" as="geometry" />
        </mxCell>
        <mxCell id="in-sBG0inysb9XRqAqCt-18" value="" style="line;strokeWidth=2;direction=south;html=1;" vertex="1" parent="1">
          <mxGeometry x="470" y="280" width="10" height="170" as="geometry" />
        </mxCell>
        <mxCell id="in-sBG0inysb9XRqAqCt-19" value="" style="line;strokeWidth=2;direction=south;html=1;" vertex="1" parent="1">
          <mxGeometry x="800" y="280" width="10" height="170" as="geometry" />
        </mxCell>
        <mxCell id="in-sBG0inysb9XRqAqCt-21" value="" style="line;strokeWidth=2;direction=south;html=1;fillColor=#f8cecc;strokeColor=#b85450;" vertex="1" parent="1">
          <mxGeometry x="800" y="60" width="10" height="200" as="geometry" />
        </mxCell>
        <mxCell id="in-sBG0inysb9XRqAqCt-22" value="" style="line;strokeWidth=2;direction=south;html=1;" vertex="1" parent="1">
          <mxGeometry x="470" y="-180" width="10" height="220" as="geometry" />
        </mxCell>
        <mxCell id="in-sBG0inysb9XRqAqCt-23" value="" style="line;strokeWidth=2;direction=south;html=1;" vertex="1" parent="1">
          <mxGeometry x="470" y="-430" width="10" height="220" as="geometry" />
        </mxCell>
        <mxCell id="in-sBG0inysb9XRqAqCt-24" value="" style="line;strokeWidth=2;direction=south;html=1;" vertex="1" parent="1">
          <mxGeometry x="800" y="-430" width="10" height="220" as="geometry" />
        </mxCell>
        <mxCell id="in-sBG0inysb9XRqAqCt-25" value="" style="line;strokeWidth=2;direction=south;html=1;" vertex="1" parent="1">
          <mxGeometry x="800" y="-190" width="10" height="220" as="geometry" />
        </mxCell>
        <mxCell id="in-sBG0inysb9XRqAqCt-27" value="" style="line;strokeWidth=2;html=1;" vertex="1" parent="1">
          <mxGeometry x="190" y="-190" width="260" height="10" as="geometry" />
        </mxCell>
        <mxCell id="in-sBG0inysb9XRqAqCt-29" value="" style="line;strokeWidth=2;html=1;" vertex="1" parent="1">
          <mxGeometry x="827" y="-195" width="283" height="10" as="geometry" />
        </mxCell>
        <mxCell id="in-sBG0inysb9XRqAqCt-30" value="" style="line;strokeWidth=2;html=1;" vertex="1" parent="1">
          <mxGeometry x="180" y="460" width="260" height="10" as="geometry" />
        </mxCell>
        <mxCell id="in-sBG0inysb9XRqAqCt-32" value="" style="line;strokeWidth=2;html=1;" vertex="1" parent="1">
          <mxGeometry x="827" y="465" width="293" height="10" as="geometry" />
        </mxCell>
        <mxCell id="in-sBG0inysb9XRqAqCt-33" value="&lt;p style=&quot;margin: 0px; text-indent: 0px; font-size: 13px;&quot;&gt;&lt;font style=&quot;font-size: 13px;&quot;&gt;&lt;b&gt;&lt;span style=&quot;white-space: pre;&quot;&gt; &lt;/span&gt;Standort Luebeck&lt;br&gt;&lt;/b&gt;&lt;/font&gt;&lt;/p&gt;&lt;p style=&quot;margin: 0px; text-indent: 0px; font-size: 13px;&quot;&gt;&lt;font style=&quot;font-size: 13px;&quot;&gt;&lt;b&gt;&lt;br&gt;&lt;/b&gt;&lt;/font&gt;&lt;/p&gt;&lt;p style=&quot;margin: 0px; text-indent: 0px; font-size: 13px;&quot;&gt;&lt;font style=&quot;font-size: 13px;&quot;&gt;&lt;b&gt;Router1:&lt;br&gt;&lt;/b&gt;&lt;/font&gt;&lt;/p&gt;&lt;p style=&quot;margin: 0px; text-indent: 0px; font-size: 13px;&quot;&gt;&lt;font style=&quot;font-size: 13px;&quot;&gt;&lt;b&gt;2001:db8:b:::/64&lt;/b&gt;&lt;/font&gt;&lt;/p&gt;&lt;font style=&quot;font-size: 13px;&quot;&gt;&lt;b&gt;&lt;br&gt;&lt;/b&gt;&lt;/font&gt;&lt;p style=&quot;margin: 0px; text-indent: 0px; font-size: 13px;&quot;&gt;&lt;font style=&quot;font-size: 13px;&quot;&gt;&lt;b&gt;HH-&amp;gt; se0/1/1 fd00:c1::2/32&lt;/b&gt;&lt;/font&gt;&lt;/p&gt;&lt;font style=&quot;font-size: 13px;&quot;&gt;&lt;b&gt;&lt;br&gt;&lt;/b&gt;&lt;/font&gt;&lt;p style=&quot;margin: 0px; text-indent: 0px; font-size: 13px;&quot;&gt;&lt;font style=&quot;font-size: 13px;&quot;&gt;&lt;b&gt;BLN-&amp;gt; se0/2/0 fd00:c5::2/32&lt;/b&gt;&lt;/font&gt;&lt;/p&gt;&lt;font style=&quot;font-size: 13px;&quot;&gt;&lt;b&gt;&lt;br&gt;&lt;/b&gt;&lt;/font&gt;&lt;p style=&quot;margin: 0px; text-indent: 0px; font-size: 13px;&quot;&gt;&lt;font style=&quot;font-size: 13px;&quot;&gt;&lt;b&gt;Mue-&amp;gt; se0/1/0 fd00:c4::1/32&lt;/b&gt;&lt;/font&gt;&lt;/p&gt;" style="text;whiteSpace=wrap;html=1;" vertex="1" parent="1">
          <mxGeometry x="1040" y="-450" width="180" height="120" as="geometry" />
        </mxCell>
        <mxCell id="in-sBG0inysb9XRqAqCt-34" value="&lt;div style=&quot;font-size: 13px;&quot;&gt;&lt;font style=&quot;font-size: 13px;&quot;&gt;&lt;b&gt;&lt;span style=&quot;white-space: pre;&quot;&gt; &lt;/span&gt;Standort Hamburg&lt;br&gt;&lt;/b&gt;&lt;/font&gt;&lt;/div&gt;&lt;div style=&quot;font-size: 13px;&quot;&gt;&lt;font style=&quot;font-size: 13px;&quot;&gt;&lt;b&gt;&lt;br&gt;&lt;/b&gt;&lt;/font&gt;&lt;/div&gt;&lt;div style=&quot;font-size: 13px;&quot;&gt;&lt;font style=&quot;font-size: 13px;&quot;&gt;&lt;b&gt;Router0:&lt;br&gt;&lt;/b&gt;&lt;/font&gt;&lt;/div&gt;&lt;p style=&quot;margin: 0px; text-indent: 0px; font-size: 13px;&quot;&gt;&lt;font style=&quot;font-size: 13px;&quot;&gt;&lt;b&gt;2001:db8:a:::1/64&lt;/b&gt;&lt;/font&gt;&lt;/p&gt;&lt;font style=&quot;font-size: 13px;&quot;&gt;&lt;b&gt;&lt;br&gt;&lt;/b&gt;&lt;/font&gt;&lt;p style=&quot;margin: 0px; text-indent: 0px; font-size: 13px;&quot;&gt;&lt;font style=&quot;font-size: 13px;&quot;&gt;&lt;b&gt;Lue-&amp;gt; Se0/1/1 fd00:c1::1/32&lt;/b&gt;&lt;/font&gt;&lt;/p&gt;&lt;font style=&quot;font-size: 13px;&quot;&gt;&lt;b&gt;&lt;br&gt;&lt;/b&gt;&lt;/font&gt;&lt;p style=&quot;margin: 0px; text-indent: 0px; font-size: 13px;&quot;&gt;&lt;font style=&quot;font-size: 13px;&quot;&gt;&lt;b&gt;Mue-&amp;gt; Se0/2/0 fd00:c2::1/32&lt;/b&gt;&lt;/font&gt;&lt;/p&gt;&lt;font style=&quot;font-size: 13px;&quot;&gt;&lt;b&gt;&lt;br&gt;&lt;/b&gt;&lt;/font&gt;&lt;p style=&quot;margin: 0px; text-indent: 0px; font-size: 13px;&quot;&gt;&lt;font style=&quot;font-size: 13px;&quot;&gt;&lt;b&gt;BLN-&amp;gt; Se0/1/0 fd00:c3::1/32&lt;/b&gt;&lt;/font&gt;&lt;/p&gt;&lt;font style=&quot;font-size: 13px;&quot;&gt;&lt;b&gt;&lt;br&gt;&lt;/b&gt;&lt;/font&gt;&lt;p style=&quot;margin-top:0px; margin-bottom:0px; margin-left:0px; margin-right:0px; -qt-block-indent:0; text-indent:0px;&quot;&gt; &lt;/p&gt;" style="text;whiteSpace=wrap;html=1;" vertex="1" parent="1">
          <mxGeometry x="110" y="-410" width="180" height="140" as="geometry" />
        </mxCell>
        <mxCell id="in-sBG0inysb9XRqAqCt-35" value="&lt;p style=&quot;margin: 0px; text-indent: 0px; font-size: 13px;&quot;&gt;&lt;font style=&quot;font-size: 13px;&quot;&gt;&lt;b&gt;&lt;span style=&quot;white-space: pre;&quot;&gt; &lt;/span&gt;Standort Berlin&lt;/b&gt;&lt;/font&gt;&lt;/p&gt;&lt;p style=&quot;margin: 0px; text-indent: 0px; font-size: 13px;&quot;&gt;&lt;font style=&quot;font-size: 13px;&quot;&gt;&lt;b&gt;&lt;br&gt;&lt;/b&gt;&lt;/font&gt;&lt;/p&gt;&lt;p style=&quot;margin: 0px; text-indent: 0px; font-size: 13px;&quot;&gt;&lt;font style=&quot;font-size: 13px;&quot;&gt;&lt;b&gt;Router2:&lt;br&gt;&lt;/b&gt;&lt;/font&gt;&lt;/p&gt;&lt;p style=&quot;margin: 0px; text-indent: 0px; font-size: 13px;&quot;&gt;&lt;font style=&quot;font-size: 13px;&quot;&gt;&lt;b&gt;2001:db8:c:10::/64&lt;/b&gt;&lt;/font&gt;&lt;/p&gt;&lt;font style=&quot;font-size: 13px;&quot;&gt;&lt;b&gt;&lt;br&gt;&lt;/b&gt;&lt;/font&gt;&lt;p style=&quot;margin: 0px; text-indent: 0px; font-size: 13px;&quot;&gt;&lt;font style=&quot;font-size: 13px;&quot;&gt;&lt;b&gt;HH-&amp;gt; se0/1/0 fd00:c3::2/32&lt;/b&gt;&lt;/font&gt;&lt;/p&gt;&lt;font style=&quot;font-size: 13px;&quot;&gt;&lt;b&gt;&lt;br&gt;&lt;/b&gt;&lt;/font&gt;&lt;p style=&quot;margin: 0px; text-indent: 0px; font-size: 13px;&quot;&gt;&lt;font style=&quot;font-size: 13px;&quot;&gt;&lt;b&gt;Lue-&amp;gt; se0/2/0 fd00:c5::1/32&lt;/b&gt;&lt;/font&gt;&lt;/p&gt;&lt;font style=&quot;font-size: 13px;&quot;&gt;&lt;b&gt;&lt;br&gt;&lt;/b&gt;&lt;/font&gt;&lt;p style=&quot;margin: 0px; text-indent: 0px; font-size: 13px;&quot;&gt;&lt;font style=&quot;font-size: 13px;&quot;&gt;&lt;b&gt;Mue-&amp;gt; se0/1/1 fd00:c6::1/32&lt;/b&gt;&lt;/font&gt;&lt;/p&gt;" style="text;whiteSpace=wrap;html=1;" vertex="1" parent="1">
          <mxGeometry x="110" y="230" width="180" height="120" as="geometry" />
        </mxCell>
        <mxCell id="in-sBG0inysb9XRqAqCt-37" value="&lt;p style=&quot;margin: 0px; text-indent: 0px; font-size: 13px;&quot;&gt;&lt;font style=&quot;font-size: 13px;&quot;&gt;&lt;b&gt;&lt;span style=&quot;white-space: pre;&quot;&gt; &lt;/span&gt;Standort Muenchen&lt;br&gt;&lt;/b&gt;&lt;/font&gt;&lt;/p&gt;&lt;p style=&quot;margin: 0px; text-indent: 0px; font-size: 13px;&quot;&gt;&lt;font style=&quot;font-size: 13px;&quot;&gt;&lt;b&gt;Router3:&lt;br&gt;&lt;/b&gt;&lt;/font&gt;&lt;/p&gt;&lt;p style=&quot;margin: 0px; text-indent: 0px; font-size: 13px;&quot;&gt;&lt;font style=&quot;font-size: 13px;&quot;&gt;&lt;b&gt;2001:db8:d:10::/64&lt;/b&gt;&lt;/font&gt;&lt;/p&gt;&lt;font style=&quot;font-size: 13px;&quot;&gt;&lt;b&gt;&lt;br&gt;&lt;/b&gt;&lt;/font&gt;&lt;p style=&quot;margin: 0px; text-indent: 0px; font-size: 13px;&quot;&gt;&lt;font style=&quot;font-size: 13px;&quot;&gt;&lt;b&gt;Lue-&amp;gt; se0/1/0 fd00:c4::2/32&lt;/b&gt;&lt;/font&gt;&lt;/p&gt;&lt;font style=&quot;font-size: 13px;&quot;&gt;&lt;b&gt;&lt;br&gt;&lt;/b&gt;&lt;/font&gt;&lt;p style=&quot;margin: 0px; text-indent: 0px; font-size: 13px;&quot;&gt;&lt;font style=&quot;font-size: 13px;&quot;&gt;&lt;b&gt;HH-&amp;gt; se0/2/0 fd00:c2::2/32&lt;/b&gt;&lt;/font&gt;&lt;/p&gt;&lt;font style=&quot;font-size: 13px;&quot;&gt;&lt;b&gt;&lt;br&gt;&lt;/b&gt;&lt;/font&gt;&lt;p style=&quot;margin: 0px; text-indent: 0px; font-size: 13px;&quot;&gt;&lt;font style=&quot;font-size: 13px;&quot;&gt;&lt;b&gt;BLN-&amp;gt; se0/1/1 fd00:c6::2/32&lt;/b&gt;&lt;/font&gt;&lt;/p&gt;" style="text;whiteSpace=wrap;html=1;" vertex="1" parent="1">
          <mxGeometry x="1050" y="250" width="180" height="120" as="geometry" />
        </mxCell>
        <mxCell id="in-sBG0inysb9XRqAqCt-38" value="&lt;div&gt;Server0&lt;/div&gt;&lt;div&gt;2001:db8:C:10::2/64&lt;/div&gt;&lt;div&gt;Fa0&lt;/div&gt;" style="text;html=1;align=center;verticalAlign=middle;resizable=0;points=[];autosize=1;strokeColor=none;fillColor=none;" vertex="1" parent="1">
          <mxGeometry x="100" y="510" width="130" height="60" as="geometry" />
        </mxCell>
        <mxCell id="in-sBG0inysb9XRqAqCt-39" value="&lt;div&gt;Server1&lt;/div&gt;&lt;div&gt;2001:db8:D:10::2/64&lt;/div&gt;&lt;div&gt;Fa0&lt;/div&gt;" style="text;html=1;align=center;verticalAlign=middle;resizable=0;points=[];autosize=1;strokeColor=none;fillColor=none;" vertex="1" parent="1">
          <mxGeometry x="1075" y="510" width="130" height="60" as="geometry" />
        </mxCell>
        <mxCell id="in-sBG0inysb9XRqAqCt-40" value="PC-A10&lt;div&gt;2001:db8:A:10::2/64&lt;/div&gt;&lt;div&gt;Fa0&lt;/div&gt;" style="text;html=1;align=center;verticalAlign=middle;resizable=0;points=[];autosize=1;strokeColor=none;fillColor=none;" vertex="1" parent="1">
          <mxGeometry x="100" y="-150" width="130" height="60" as="geometry" />
        </mxCell>
        <mxCell id="in-sBG0inysb9XRqAqCt-42" value="PC-A20&lt;div&gt;2001:db8:A:20::2/64&lt;/div&gt;&lt;div&gt;Fa0&lt;/div&gt;" style="text;html=1;align=center;verticalAlign=middle;resizable=0;points=[];autosize=1;strokeColor=none;fillColor=none;" vertex="1" parent="1">
          <mxGeometry x="410" y="-560" width="130" height="60" as="geometry" />
        </mxCell>
        <mxCell id="in-sBG0inysb9XRqAqCt-43" value="PC-B10&lt;div&gt;2001:db8:B:10::2/64&lt;/div&gt;&lt;div&gt;Fa0&lt;/div&gt;" style="text;html=1;align=center;verticalAlign=middle;resizable=0;points=[];autosize=1;strokeColor=none;fillColor=none;" vertex="1" parent="1">
          <mxGeometry x="735" y="-560" width="130" height="60" as="geometry" />
        </mxCell>
        <mxCell id="in-sBG0inysb9XRqAqCt-44" value="PC-B20&lt;div&gt;2001:db8:B:20::2/64&lt;/div&gt;&lt;div&gt;Fa0&lt;/div&gt;" style="text;html=1;align=center;verticalAlign=middle;resizable=0;points=[];autosize=1;strokeColor=none;fillColor=none;" vertex="1" parent="1">
          <mxGeometry x="1210" y="-220" width="130" height="60" as="geometry" />
        </mxCell>
        <mxCell id="in-sBG0inysb9XRqAqCt-50" value="" style="edgeStyle=isometricEdgeStyle;endArrow=none;html=1;rounded=0;fillColor=#f8cecc;strokeColor=#b85450;" edge="1" parent="1" target="in-sBG0inysb9XRqAqCt-9">
          <mxGeometry width="50" height="100" relative="1" as="geometry">
            <mxPoint x="485.8" y="260" as="sourcePoint" />
            <mxPoint x="535.8" y="160" as="targetPoint" />
          </mxGeometry>
        </mxCell>
        <mxCell id="in-sBG0inysb9XRqAqCt-53" value="" style="edgeStyle=isometricEdgeStyle;endArrow=none;html=1;elbow=vertical;rounded=0;fillColor=#f8cecc;strokeColor=#b85450;" edge="1" parent="1" target="in-sBG0inysb9XRqAqCt-8">
          <mxGeometry width="50" height="100" relative="1" as="geometry">
            <mxPoint x="780" y="270" as="sourcePoint" />
            <mxPoint x="680" y="130" as="targetPoint" />
          </mxGeometry>
        </mxCell>
        <mxCell id="in-sBG0inysb9XRqAqCt-54" value="" style="line;strokeWidth=2;direction=south;html=1;fillColor=#f8cecc;strokeColor=#b85450;" vertex="1" parent="1">
          <mxGeometry x="470" y="60" width="10" height="200" as="geometry" />
        </mxCell>
        <mxCell id="in-sBG0inysb9XRqAqCt-55" value="" style="line;strokeWidth=2;html=1;fillColor=#f8cecc;strokeColor=#b85450;" vertex="1" parent="1">
          <mxGeometry x="500" y="265" width="260" height="10" as="geometry" />
        </mxCell>
        <mxCell id="in-sBG0inysb9XRqAqCt-57" value="Router1" style="text;html=1;align=center;verticalAlign=middle;resizable=0;points=[];autosize=1;strokeColor=none;fillColor=none;" vertex="1" parent="1">
          <mxGeometry x="860" y="45" width="70" height="30" as="geometry" />
        </mxCell>
        <mxCell id="in-sBG0inysb9XRqAqCt-58" value="Router0" style="text;html=1;align=center;verticalAlign=middle;resizable=0;points=[];autosize=1;strokeColor=none;fillColor=none;" vertex="1" parent="1">
          <mxGeometry x="344" y="45" width="70" height="30" as="geometry" />
        </mxCell>
        <mxCell id="in-sBG0inysb9XRqAqCt-60" value="Router2" style="text;html=1;align=center;verticalAlign=middle;resizable=0;points=[];autosize=1;strokeColor=none;fillColor=none;" vertex="1" parent="1">
          <mxGeometry x="344" y="255" width="70" height="30" as="geometry" />
        </mxCell>
        <mxCell id="in-sBG0inysb9XRqAqCt-61" value="Router3" style="text;html=1;align=center;verticalAlign=middle;resizable=0;points=[];autosize=1;strokeColor=none;fillColor=none;" vertex="1" parent="1">
          <mxGeometry x="855" y="255" width="70" height="30" as="geometry" />
        </mxCell>
        <mxCell id="in-sBG0inysb9XRqAqCt-62" value="Se0/1/1" style="text;html=1;align=center;verticalAlign=middle;resizable=0;points=[];autosize=1;strokeColor=none;fillColor=none;" vertex="1" parent="1">
          <mxGeometry x="705" y="25" width="60" height="30" as="geometry" />
        </mxCell>
        <mxCell id="in-sBG0inysb9XRqAqCt-63" value="Se0/1" style="text;html=1;align=center;verticalAlign=middle;resizable=0;points=[];autosize=1;strokeColor=none;fillColor=none;" vertex="1" parent="1">
          <mxGeometry x="800" y="200" width="50" height="30" as="geometry" />
        </mxCell>
        <mxCell id="in-sBG0inysb9XRqAqCt-64" value="Se0/1" style="text;html=1;align=center;verticalAlign=middle;resizable=0;points=[];autosize=1;strokeColor=none;fillColor=none;" vertex="1" parent="1">
          <mxGeometry x="430" y="200" width="50" height="30" as="geometry" />
        </mxCell>
        <mxCell id="in-sBG0inysb9XRqAqCt-65" value="Se0/1" style="text;html=1;align=center;verticalAlign=middle;resizable=0;points=[];autosize=1;strokeColor=none;fillColor=none;" vertex="1" parent="1">
          <mxGeometry x="805" y="100" width="50" height="30" as="geometry" />
        </mxCell>
        <mxCell id="in-sBG0inysb9XRqAqCt-66" value="Se0/1" style="text;html=1;align=center;verticalAlign=middle;resizable=0;points=[];autosize=1;strokeColor=none;fillColor=none;" vertex="1" parent="1">
          <mxGeometry x="430" y="100" width="50" height="30" as="geometry" />
        </mxCell>
        <mxCell id="in-sBG0inysb9XRqAqCt-68" value="Se0/2" style="text;html=1;align=center;verticalAlign=middle;resizable=0;points=[];autosize=1;strokeColor=none;fillColor=none;" vertex="1" parent="1">
          <mxGeometry x="700" y="190" width="50" height="30" as="geometry" />
        </mxCell>
        <mxCell id="in-sBG0inysb9XRqAqCt-69" value="Se0/2" style="text;html=1;align=center;verticalAlign=middle;resizable=0;points=[];autosize=1;strokeColor=none;fillColor=none;" vertex="1" parent="1">
          <mxGeometry x="720" y="105" width="50" height="30" as="geometry" />
        </mxCell>
        <mxCell id="in-sBG0inysb9XRqAqCt-70" value="Se0/2" style="text;html=1;align=center;verticalAlign=middle;resizable=0;points=[];autosize=1;strokeColor=none;fillColor=none;" vertex="1" parent="1">
          <mxGeometry x="520" y="105" width="50" height="30" as="geometry" />
        </mxCell>
        <mxCell id="in-sBG0inysb9XRqAqCt-71" value="Se0/2" style="text;html=1;align=center;verticalAlign=middle;resizable=0;points=[];autosize=1;strokeColor=none;fillColor=none;" vertex="1" parent="1">
          <mxGeometry x="520" y="190" width="50" height="30" as="geometry" />
        </mxCell>
        <mxCell id="in-sBG0inysb9XRqAqCt-73" value="Se0/1/1" style="text;html=1;align=center;verticalAlign=middle;resizable=0;points=[];autosize=1;strokeColor=none;fillColor=none;" vertex="1" parent="1">
          <mxGeometry x="510" y="275" width="60" height="30" as="geometry" />
        </mxCell>
        <mxCell id="in-sBG0inysb9XRqAqCt-74" value="Se0/1/1" style="text;html=1;align=center;verticalAlign=middle;resizable=0;points=[];autosize=1;strokeColor=none;fillColor=none;" vertex="1" parent="1">
          <mxGeometry x="695" y="275" width="60" height="30" as="geometry" />
        </mxCell>
        <mxCell id="in-sBG0inysb9XRqAqCt-75" value="Se0/1/1" style="text;html=1;align=center;verticalAlign=middle;resizable=0;points=[];autosize=1;strokeColor=none;fillColor=none;" vertex="1" parent="1">
          <mxGeometry x="510" y="25" width="60" height="30" as="geometry" />
        </mxCell>
        <mxCell id="in-sBG0inysb9XRqAqCt-76" value="gi0/0" style="text;html=1;align=center;verticalAlign=middle;resizable=0;points=[];autosize=1;strokeColor=none;fillColor=none;" vertex="1" parent="1">
          <mxGeometry x="414" y="-20" width="50" height="30" as="geometry" />
        </mxCell>
        <mxCell id="in-sBG0inysb9XRqAqCt-77" value="gi0/0" style="text;html=1;align=center;verticalAlign=middle;resizable=0;points=[];autosize=1;strokeColor=none;fillColor=none;" vertex="1" parent="1">
          <mxGeometry x="420" y="310" width="50" height="30" as="geometry" />
        </mxCell>
        <mxCell id="in-sBG0inysb9XRqAqCt-78" value="gi0/0" style="text;html=1;align=center;verticalAlign=middle;resizable=0;points=[];autosize=1;strokeColor=none;fillColor=none;" vertex="1" parent="1">
          <mxGeometry x="800" y="305" width="50" height="30" as="geometry" />
        </mxCell>
        <mxCell id="in-sBG0inysb9XRqAqCt-79" value="gi0/0" style="text;html=1;align=center;verticalAlign=middle;resizable=0;points=[];autosize=1;strokeColor=none;fillColor=none;" vertex="1" parent="1">
          <mxGeometry x="815" y="-20" width="50" height="30" as="geometry" />
        </mxCell>
        <mxCell id="in-sBG0inysb9XRqAqCt-81" value="trunk 10,,99" style="text;html=1;align=center;verticalAlign=middle;resizable=0;points=[];autosize=1;strokeColor=none;fillColor=none;" vertex="1" parent="1">
          <mxGeometry x="725" y="370" width="80" height="30" as="geometry" />
        </mxCell>
        <mxCell id="in-sBG0inysb9XRqAqCt-82" value="trunk 10,,99" style="text;html=1;align=center;verticalAlign=middle;resizable=0;points=[];autosize=1;strokeColor=none;fillColor=none;" vertex="1" parent="1">
          <mxGeometry x="480" y="370" width="80" height="30" as="geometry" />
        </mxCell>
        <mxCell id="in-sBG0inysb9XRqAqCt-83" value="trunk 10, 20,,99" style="text;html=1;align=center;verticalAlign=middle;resizable=0;points=[];autosize=1;strokeColor=none;fillColor=none;" vertex="1" parent="1">
          <mxGeometry x="700" y="-110" width="100" height="30" as="geometry" />
        </mxCell>
        <mxCell id="in-sBG0inysb9XRqAqCt-84" value="trunk 10, 20,,99" style="text;html=1;align=center;verticalAlign=middle;resizable=0;points=[];autosize=1;strokeColor=none;fillColor=none;" vertex="1" parent="1">
          <mxGeometry x="480" y="-110" width="100" height="30" as="geometry" />
        </mxCell>
        <mxCell id="in-sBG0inysb9XRqAqCt-85" value="gi1/0/1" style="text;html=1;align=center;verticalAlign=middle;resizable=0;points=[];autosize=1;strokeColor=none;fillColor=none;" vertex="1" parent="1">
          <mxGeometry x="827" y="490" width="60" height="30" as="geometry" />
        </mxCell>
        <mxCell id="in-sBG0inysb9XRqAqCt-86" value="gi1/0/1" style="text;html=1;align=center;verticalAlign=middle;resizable=0;points=[];autosize=1;strokeColor=none;fillColor=none;" vertex="1" parent="1">
          <mxGeometry x="805" y="-150" width="60" height="30" as="geometry" />
        </mxCell>
        <mxCell id="in-sBG0inysb9XRqAqCt-87" value="gi1/0/1" style="text;html=1;align=center;verticalAlign=middle;resizable=0;points=[];autosize=1;strokeColor=none;fillColor=none;" vertex="1" parent="1">
          <mxGeometry x="410" y="-160" width="60" height="30" as="geometry" />
        </mxCell>
        <mxCell id="in-sBG0inysb9XRqAqCt-88" value="gi1/0/2" style="text;html=1;align=center;verticalAlign=middle;resizable=0;points=[];autosize=1;strokeColor=none;fillColor=none;" vertex="1" parent="1">
          <mxGeometry x="810" y="400" width="60" height="30" as="geometry" />
        </mxCell>
        <mxCell id="in-sBG0inysb9XRqAqCt-89" value="gi1/0/1" style="text;html=1;align=center;verticalAlign=middle;resizable=0;points=[];autosize=1;strokeColor=none;fillColor=none;" vertex="1" parent="1">
          <mxGeometry x="409" y="410" width="60" height="30" as="geometry" />
        </mxCell>
        <mxCell id="in-sBG0inysb9XRqAqCt-90" value="gi1/0/2" style="text;html=1;align=center;verticalAlign=middle;resizable=0;points=[];autosize=1;strokeColor=none;fillColor=none;" vertex="1" parent="1">
          <mxGeometry x="360" y="475" width="60" height="30" as="geometry" />
        </mxCell>
        <mxCell id="in-sBG0inysb9XRqAqCt-91" value="gi1/0/2" style="text;html=1;align=center;verticalAlign=middle;resizable=0;points=[];autosize=1;strokeColor=none;fillColor=none;" vertex="1" parent="1">
          <mxGeometry x="470" y="-270" width="60" height="30" as="geometry" />
        </mxCell>
        <mxCell id="in-sBG0inysb9XRqAqCt-92" value="gi1/0/2" style="text;html=1;align=center;verticalAlign=middle;resizable=0;points=[];autosize=1;strokeColor=none;fillColor=none;" vertex="1" parent="1">
          <mxGeometry x="883.5" y="-230" width="60" height="30" as="geometry" />
        </mxCell>
        <mxCell id="in-sBG0inysb9XRqAqCt-93" value="gi1/0/3" style="text;html=1;align=center;verticalAlign=middle;resizable=0;points=[];autosize=1;strokeColor=none;fillColor=none;" vertex="1" parent="1">
          <mxGeometry x="340" y="-225" width="60" height="30" as="geometry" />
        </mxCell>
        <mxCell id="in-sBG0inysb9XRqAqCt-94" value="gi1/0/3" style="text;html=1;align=center;verticalAlign=middle;resizable=0;points=[];autosize=1;strokeColor=none;fillColor=none;" vertex="1" parent="1">
          <mxGeometry x="805" y="-280" width="60" height="30" as="geometry" />
        </mxCell>
        <mxCell id="in-sBG0inysb9XRqAqCt-95" value="C1" style="text;html=1;align=center;verticalAlign=middle;resizable=0;points=[];autosize=1;strokeColor=none;fillColor=none;" vertex="1" parent="1">
          <mxGeometry x="600" y="25" width="40" height="30" as="geometry" />
        </mxCell>
        <mxCell id="in-sBG0inysb9XRqAqCt-96" value="&lt;div&gt;C2&lt;/div&gt;" style="text;html=1;align=center;verticalAlign=middle;resizable=0;points=[];autosize=1;strokeColor=none;fillColor=none;" vertex="1" parent="1">
          <mxGeometry x="570" y="100" width="40" height="30" as="geometry" />
        </mxCell>
        <mxCell id="in-sBG0inysb9XRqAqCt-97" value="&lt;div&gt;C3&lt;/div&gt;" style="text;html=1;align=center;verticalAlign=middle;resizable=0;points=[];autosize=1;strokeColor=none;fillColor=none;" vertex="1" parent="1">
          <mxGeometry x="425" y="145" width="40" height="30" as="geometry" />
        </mxCell>
        <mxCell id="in-sBG0inysb9XRqAqCt-98" value="&lt;div&gt;C4&lt;/div&gt;" style="text;html=1;align=center;verticalAlign=middle;resizable=0;points=[];autosize=1;strokeColor=none;fillColor=none;" vertex="1" parent="1">
          <mxGeometry x="815" y="145" width="40" height="30" as="geometry" />
        </mxCell>
        <mxCell id="in-sBG0inysb9XRqAqCt-99" value="C5" style="text;html=1;align=center;verticalAlign=middle;resizable=0;points=[];autosize=1;strokeColor=none;fillColor=none;" vertex="1" parent="1">
          <mxGeometry x="660" y="100" width="40" height="30" as="geometry" />
        </mxCell>
        <mxCell id="in-sBG0inysb9XRqAqCt-100" value="C6" style="text;html=1;align=center;verticalAlign=middle;resizable=0;points=[];autosize=1;strokeColor=none;fillColor=none;" vertex="1" parent="1">
          <mxGeometry x="610" y="275" width="40" height="30" as="geometry" />
        </mxCell>
        <mxCell id="in-sBG0inysb9XRqAqCt-101" value="&lt;div style=&quot;font-size: 13px;&quot;&gt;&lt;font style=&quot;font-size: 13px;&quot;&gt;&lt;b&gt;Connections Routing&lt;/b&gt;&lt;/font&gt;&lt;/div&gt;&lt;div style=&quot;font-size: 13px;&quot;&gt;&lt;font style=&quot;font-size: 13px;&quot;&gt;&lt;b&gt;C1 fd00:C1::1-2&lt;/b&gt;&lt;/font&gt;&lt;/div&gt;&lt;div style=&quot;font-size: 13px;&quot;&gt;&lt;font style=&quot;font-size: 13px;&quot;&gt;&lt;b&gt;C2 fd00:C2::1-2&lt;/b&gt;&lt;/font&gt;&lt;/div&gt;&lt;div style=&quot;font-size: 13px;&quot;&gt;&lt;font style=&quot;font-size: 13px;&quot;&gt;&lt;b&gt;C3 fd00:C3::1-2&lt;/b&gt;&lt;/font&gt;&lt;/div&gt;&lt;div style=&quot;font-size: 13px;&quot;&gt;&lt;font style=&quot;font-size: 13px;&quot;&gt;&lt;b&gt;C4 fd00:C4::1-2&lt;/b&gt;&lt;/font&gt;&lt;/div&gt;&lt;div style=&quot;font-size: 13px;&quot;&gt;&lt;font style=&quot;font-size: 13px;&quot;&gt;&lt;b&gt;C5 fd00:C5::1-2&lt;/b&gt;&lt;/font&gt;&lt;/div&gt;&lt;div style=&quot;font-size: 13px;&quot;&gt;&lt;font style=&quot;font-size: 13px;&quot;&gt;&lt;b&gt;C6 fd00:C6::1-2&lt;/b&gt;&lt;/font&gt;&lt;/div&gt;" style="text;html=1;align=center;verticalAlign=middle;resizable=0;points=[];autosize=1;strokeColor=none;fillColor=none;" vertex="1" parent="1">
          <mxGeometry x="980" y="75" width="150" height="120" as="geometry" />
        </mxCell>
        <mxCell id="in-sBG0inysb9XRqAqCt-104" value="vlan10" style="text;html=1;align=center;verticalAlign=middle;resizable=0;points=[];autosize=1;strokeColor=none;fillColor=none;" vertex="1" parent="1">
          <mxGeometry x="270" y="-225" width="60" height="30" as="geometry" />
        </mxCell>
        <mxCell id="in-sBG0inysb9XRqAqCt-105" value="vlan10" style="text;html=1;align=center;verticalAlign=middle;resizable=0;points=[];autosize=1;strokeColor=none;fillColor=none;" vertex="1" parent="1">
          <mxGeometry x="815" y="-335" width="60" height="30" as="geometry" />
        </mxCell>
        <mxCell id="in-sBG0inysb9XRqAqCt-106" value="vlan10" style="text;html=1;align=center;verticalAlign=middle;resizable=0;points=[];autosize=1;strokeColor=none;fillColor=none;" vertex="1" parent="1">
          <mxGeometry x="250" y="485" width="60" height="30" as="geometry" />
        </mxCell>
        <mxCell id="in-sBG0inysb9XRqAqCt-107" value="vlan10" style="text;html=1;align=center;verticalAlign=middle;resizable=0;points=[];autosize=1;strokeColor=none;fillColor=none;" vertex="1" parent="1">
          <mxGeometry x="943.5" y="485" width="60" height="30" as="geometry" />
        </mxCell>
        <mxCell id="in-sBG0inysb9XRqAqCt-108" value="vlan 20" style="text;html=1;align=center;verticalAlign=middle;resizable=0;points=[];autosize=1;strokeColor=none;fillColor=none;" vertex="1" parent="1">
          <mxGeometry x="943.5" y="-230" width="60" height="30" as="geometry" />
        </mxCell>
        <mxCell id="in-sBG0inysb9XRqAqCt-109" value="vlan 20" style="text;html=1;align=center;verticalAlign=middle;resizable=0;points=[];autosize=1;strokeColor=none;fillColor=none;" vertex="1" parent="1">
          <mxGeometry x="480" y="-335" width="60" height="30" as="geometry" />
        </mxCell>
      </root>
    </mxGraphModel>
  </diagram>
</mxfile>
